<?xml version="1.0" standalone="no"?>
<!DOCTYPE svg PUBLIC "-//W3C//DTD SVG 20010904//EN"
 "http://www.w3.org/TR/2001/REC-SVG-20010904/DTD/svg10.dtd">
<svg version="1.0" xmlns="http://www.w3.org/2000/svg"
 width="256.000000pt" height="256.000000pt" viewBox="0 0 256.000000 256.000000"
 preserveAspectRatio="xMidYMid meet">
<metadata>
Created by potrace 1.11, written by Peter Selinger 2001-2013
</metadata>
<g transform="translate(0.000000,256.000000) scale(0.100000,-0.100000)"
fill="#000000" stroke="none">
<path d="M609 2255 c-178 -64 -299 -227 -316 -430 -12 -146 55 -288 162 -341
21 -10 44 -39 73 -93 24 -43 72 -110 107 -148 36 -39 62 -73 59 -76 -3 -3 -16
-31 -29 -62 l-23 -58 -49 -4 c-127 -11 -264 -68 -333 -138 -24 -25 -41 -47
-38 -50 3 -3 25 1 49 9 108 35 223 52 332 47 51 -2 33 -35 -45 -81 -94 -56
-174 -138 -211 -218 -16 -35 -28 -65 -26 -67 2 -2 31 17 64 42 81 60 179 117
242 139 49 17 54 17 69 2 15 -15 13 -21 -29 -85 -25 -37 -52 -86 -62 -108 -23
-56 -42 -163 -35 -205 l5 -35 34 60 c67 117 129 199 188 249 22 18 23 18 64
-3 92 -49 254 -82 409 -85 133 -3 330 37 419 85 20 10 38 19 42 19 29 0 219
-248 219 -286 0 -6 6 -17 14 -23 20 -17 25 53 9 132 -12 57 -63 175 -88 201
-6 6 -18 24 -28 39 -17 26 -17 29 -1 44 15 15 20 15 71 -2 58 -20 172 -88 257
-152 46 -35 48 -35 41 -12 -29 98 -118 200 -236 270 -76 45 -93 78 -41 80 107
4 211 -10 327 -45 27 -8 51 -13 54 -10 3 2 -15 25 -39 49 -77 78 -209 128
-382 144 -5 1 -8 7 -8 14 0 6 -11 35 -24 62 l-23 50 63 69 c34 37 82 103 106
146 30 54 53 83 76 96 257 139 189 604 -108 748 -54 26 -77 31 -137 31 -40 0
-76 -4 -81 -10 -7 -6 -1 -30 15 -65 14 -30 66 -147 116 -260 122 -280 127
-290 124 -290 -1 0 -103 76 -227 169 l-225 170 -19 -41 c-73 -161 66 -395 277
-466 l57 -19 -26 -39 c-15 -21 -41 -55 -59 -75 l-32 -36 -57 62 c-82 88 -208
169 -302 194 -201 54 -400 -11 -572 -188 l-63 -64 -30 29 c-17 16 -44 49 -60
73 l-29 44 57 19 c215 73 351 303 276 466 l-18 40 -185 -139 c-102 -76 -204
-152 -227 -169 l-42 -31 14 33 c7 18 67 156 133 306 78 178 116 275 109 279
-20 12 -131 11 -168 -2z"/>
</g>
</svg>
